<svg width="20" height="20" viewBox="0 0 20 20" fill="none" xmlns="http://www.w3.org/2000/svg">
<path d="M9.99967 0.833336C4.94517 0.833336 0.833008 4.9455 0.833008 10C0.833008 15.0545 4.94517 19.1667 9.99967 19.1667C15.0542 19.1667 19.1663 15.0545 19.1663 10C19.1663 4.9455 15.0542 0.833336 9.99967 0.833336ZM9.99967 17.3333C5.95626 17.3333 2.66634 14.0434 2.66634 10C2.66634 5.95659 5.95626 2.66667 9.99967 2.66667C14.0431 2.66667 17.333 5.95659 17.333 10C17.333 14.0434 14.0431 17.3333 9.99967 17.3333Z" fill="#153345"/>
<path d="M10 3.7355V10H16.2645C16.2666 9.17676 16.1059 8.36122 15.7918 7.60025C15.4777 6.83928 15.0164 6.14787 14.4343 5.56575C13.8521 4.98362 13.1607 4.52226 12.3998 4.20817C11.6388 3.89408 10.8232 3.73345 10 3.7355Z" fill="#153345"/>
</svg>
