<svg width="20" height="20" viewBox="0 0 20 20" fill="none" xmlns="http://www.w3.org/2000/svg">
<path d="M2.51336 2.66667H6.62919L7.95561 5.98316L5.82436 7.404C5.69885 7.48773 5.59596 7.60116 5.5248 7.7342C5.45364 7.86724 5.41642 8.01579 5.41644 8.16666C5.41919 8.25283 5.41644 8.16758 5.41644 8.16758V8.18683C5.4169 8.22783 5.41874 8.26879 5.42194 8.30966C5.42683 8.38544 5.43753 8.48628 5.45403 8.61216C5.48978 8.85966 5.55853 9.20066 5.69236 9.60216C5.96186 10.4088 6.48986 11.4529 7.51836 12.4814C8.54686 13.5099 9.59094 14.0379 10.3967 14.3074C10.7991 14.4412 11.1392 14.5091 11.3885 14.5457C11.5292 14.5662 11.6709 14.5784 11.8129 14.5824L11.8249 14.5833H11.8322C11.8322 14.5833 11.9349 14.5778 11.8331 14.5833C12.0033 14.5832 12.1701 14.5358 12.3148 14.4462C12.4596 14.3567 12.5765 14.2287 12.6526 14.0764L13.2668 12.8481L17.3331 13.5264V17.4864C15.398 17.766 10.1712 18.0419 6.06453 13.9352C1.95786 9.82858 2.23286 4.60083 2.51336 2.66667ZM7.31669 8.61216L8.97311 7.5085C9.32304 7.27509 9.58207 6.92845 9.70674 6.52672C9.83142 6.12498 9.81416 5.6926 9.65786 5.30208L8.33144 1.98558C8.19533 1.64541 7.96041 1.35383 7.657 1.14845C7.35358 0.943065 6.99558 0.833308 6.62919 0.833332H2.46569C1.63244 0.833332 0.848694 1.41175 0.712111 2.31558C0.400444 4.37075 -0.0221393 10.4409 4.76836 15.2314C9.55886 20.0219 15.629 19.5984 17.6842 19.2877C18.588 19.1502 19.1664 18.3673 19.1664 17.5341V13.5264C19.1665 13.0924 19.0126 12.6725 18.7321 12.3413C18.4516 12.0102 18.0628 11.7892 17.6347 11.7178L13.5684 11.0404C13.1816 10.9759 12.7844 11.037 12.4349 11.2149C12.0855 11.3927 11.8023 11.6779 11.6269 12.0286L11.3097 12.6638C11.1976 12.636 11.0866 12.6038 10.9769 12.5676C10.4086 12.3787 9.61936 11.9901 8.81453 11.1852C8.00969 10.3804 7.62103 9.59116 7.43219 9.02191C7.38768 8.88718 7.34944 8.75045 7.31761 8.61216H7.31669Z" fill="#153345"/>
</svg>
