<svg width="16" height="20" viewBox="0 0 16 20" fill="none" xmlns="http://www.w3.org/2000/svg">
<path d="M2.50033 19.1667C1.99616 19.1667 1.56471 18.9873 1.20599 18.6286C0.84727 18.2699 0.667603 17.8381 0.666992 17.3333V2.66667C0.666992 2.1625 0.846659 1.73106 1.20599 1.37234C1.56533 1.01361 1.99677 0.833947 2.50033 0.833336H13.5003C14.0045 0.833336 14.4362 1.013 14.7956 1.37234C15.1549 1.73167 15.3343 2.16311 15.3337 2.66667V17.3333C15.3337 17.8375 15.1543 18.2693 14.7956 18.6286C14.4369 18.9879 14.0051 19.1673 13.5003 19.1667H2.50033ZM2.50033 17.3333H13.5003V2.66667H11.667V8.28125C11.667 8.46459 11.5906 8.59842 11.4378 8.68275C11.285 8.76709 11.1323 8.76311 10.9795 8.67084L9.85658 7.98334C9.7038 7.89167 9.54705 7.84584 9.38632 7.84584C9.2256 7.84584 9.06916 7.89167 8.91699 7.98334L7.79408 8.67084C7.6413 8.7625 7.48485 8.76647 7.32474 8.68275C7.16463 8.59903 7.08427 8.4652 7.08366 8.28125V2.66667H2.50033V17.3333ZM7.32474 8.68275C7.16463 8.59903 7.08427 8.4652 7.08366 8.28125C7.08305 8.4652 7.16402 8.59903 7.32474 8.68275Z" fill="#153345"/>
</svg>
