<svg width="15" height="18" viewBox="0 0 15 18" fill="none" xmlns="http://www.w3.org/2000/svg">
<path d="M3.065 17.25C2.65739 17.25 2.30875 17.1049 2.01908 16.8146C1.72941 16.5243 1.58428 16.1763 1.58367 15.7705V13.7942H1.12533C0.995165 13.7942 0.886387 13.7502 0.798999 13.6622C0.710999 13.5748 0.666998 13.466 0.666998 13.3358C0.666998 13.2057 0.710999 13.0969 0.798999 13.0095C0.886999 12.9221 0.995776 12.8784 1.12533 12.8784H1.58367V9.45833H1.12533C0.995165 9.45833 0.886387 9.41433 0.798999 9.32633C0.71161 9.23833 0.66761 9.12925 0.666998 8.99908C0.666387 8.86892 0.710387 8.76014 0.798999 8.67275C0.88761 8.58536 0.996387 8.54167 1.12533 8.54167H1.58367V5.1225H1.12533C0.995165 5.1225 0.886387 5.07819 0.798999 4.98958C0.71161 4.90097 0.66761 4.7925 0.666998 4.66417C0.666387 4.53583 0.710387 4.42706 0.798999 4.33783C0.88761 4.24861 0.996387 4.20461 1.12533 4.20583H1.58367V2.23133C1.58367 1.82372 1.7288 1.47508 2.01908 1.18542C2.30936 0.89575 2.65769 0.750611 3.06408 0.75H12.9366C13.3436 0.75 13.6919 0.895139 13.9816 1.18542C14.2712 1.47569 14.4164 1.82403 14.417 2.23042V15.7696C14.417 16.1766 14.2719 16.5249 13.9816 16.8146C13.6913 17.1042 13.343 17.2494 12.9366 17.25H3.065ZM3.065 16.3333H12.9366C13.101 16.3333 13.236 16.2805 13.3417 16.1748C13.4475 16.069 13.5003 15.934 13.5003 15.7696V2.23042C13.5003 2.06603 13.4475 1.93097 13.3417 1.82525C13.236 1.71953 13.101 1.66667 12.9366 1.66667H3.06408C2.89969 1.66667 2.76464 1.71953 2.65891 1.82525C2.55319 1.93097 2.50033 2.06633 2.50033 2.23133V4.20492H2.95867C3.08883 4.20492 3.19761 4.24892 3.285 4.33692C3.373 4.42492 3.417 4.534 3.417 4.66417C3.417 4.79433 3.373 4.90311 3.285 4.9905C3.197 5.07789 3.08822 5.12158 2.95867 5.12158H2.50033V8.54167H2.95867C3.08883 8.54167 3.19761 8.58567 3.285 8.67367C3.37239 8.76167 3.41639 8.87075 3.417 9.00092C3.41761 9.13108 3.37361 9.23986 3.285 9.32725C3.19639 9.41464 3.08761 9.45833 2.95867 9.45833H2.50033V12.8775H2.95867C3.08883 12.8775 3.19761 12.9218 3.285 13.0104C3.37239 13.099 3.41639 13.2075 3.417 13.3358C3.41761 13.4642 3.37361 13.5729 3.285 13.6622C3.19639 13.7514 3.08761 13.7954 2.95867 13.7942H2.50033V15.7677C2.50033 15.9327 2.55319 16.0681 2.65891 16.1738C2.76464 16.2796 2.9 16.3333 3.065 16.3333ZM6.343 9.65083V12.8949C6.343 13.0123 6.38119 13.1091 6.45758 13.1855C6.53458 13.2619 6.63144 13.3001 6.74816 13.3001C6.86489 13.3001 6.96175 13.2619 7.03875 13.1855C7.11575 13.1091 7.15425 13.0123 7.15425 12.8949V9.65175C7.51603 9.56803 7.82403 9.38836 8.07825 9.11275C8.33186 8.83714 8.45866 8.51661 8.45866 8.15117V5.051C8.45866 4.9575 8.42353 4.87531 8.35325 4.80442C8.28236 4.73414 8.19986 4.699 8.10575 4.699C8.01164 4.699 7.92944 4.73414 7.85916 4.80442C7.78889 4.87469 7.75375 4.95719 7.75375 5.05192V8.08883H7.10108V5.051C7.10108 4.9575 7.06594 4.87531 6.99567 4.80442C6.92539 4.73414 6.84289 4.699 6.74816 4.699C6.65466 4.699 6.57278 4.73414 6.5025 4.80442C6.43161 4.87531 6.39616 4.95781 6.39616 5.05192V8.08883H5.74441V5.051C5.74441 4.9575 5.70897 4.87531 5.63808 4.80442C5.5678 4.73414 5.4853 4.699 5.39058 4.699C5.29708 4.699 5.21519 4.73414 5.14492 4.80442C5.07403 4.87531 5.03858 4.95781 5.03858 5.05192V8.15208C5.03858 8.51753 5.16569 8.83806 5.41992 9.11367C5.67353 9.38928 5.98122 9.56894 6.343 9.65267M10.6092 9.63433V12.8958C10.6092 13.0132 10.6474 13.11 10.7237 13.1864C10.8001 13.2628 10.897 13.301 11.0143 13.301C11.1317 13.301 11.2285 13.2628 11.3049 13.1864C11.3813 13.11 11.4198 13.0132 11.4204 12.8958V5.10233C11.4204 4.974 11.3776 4.87469 11.2921 4.80442C11.2071 4.73414 11.0965 4.699 10.9602 4.699C10.7965 4.699 10.6168 4.74667 10.4212 4.842C10.2257 4.93733 10.0387 5.08583 9.86025 5.2875C9.65736 5.5075 9.50244 5.75653 9.3955 6.03458C9.28794 6.31203 9.23416 6.61239 9.23416 6.93567V8.89458C9.23416 9.10419 9.30505 9.27989 9.44683 9.42167C9.58922 9.56345 9.76522 9.63433 9.97483 9.63433H10.6092Z" fill="#153345"/>
</svg>
