<svg width="22" height="18" viewBox="0 0 22 18" fill="none" xmlns="http://www.w3.org/2000/svg">
<path d="M7.0125 8.90375C8.04953 8.86784 9.03068 8.42492 9.74353 7.67089C10.4564 6.91686 10.8436 5.91241 10.8212 4.875C10.8434 4.35374 10.7622 3.83326 10.5826 3.34345C10.4029 2.85364 10.1282 2.40417 9.77425 2.02085C9.42033 1.63754 8.99414 1.32794 8.52019 1.10984C8.04624 0.891748 7.53386 0.769459 7.0125 0.75C6.48996 0.767688 5.9761 0.888676 5.50056 1.10599C5.02502 1.3233 4.59722 1.63262 4.24185 2.01612C3.88647 2.39962 3.61056 2.84969 3.43003 3.34037C3.24949 3.83105 3.16792 4.35263 3.19 4.875C3.17134 5.9137 3.56161 6.91813 4.27665 7.67176C4.9917 8.42539 5.97425 8.86785 7.0125 8.90375ZM7.0125 2.4825C7.30769 2.4999 7.59647 2.57591 7.86198 2.70608C8.12749 2.83625 8.36443 3.01799 8.55897 3.24069C8.75351 3.46339 8.90176 3.72259 8.99508 4.00318C9.0884 4.28378 9.12492 4.58015 9.1025 4.875C9.12163 5.45588 8.91437 6.02148 8.52443 6.45246C8.1345 6.88344 7.59239 7.14609 7.0125 7.185C6.43261 7.14609 5.8905 6.88344 5.50057 6.45246C5.11063 6.02148 4.90337 5.45588 4.9225 4.875C4.90008 4.58015 4.9366 4.28378 5.02992 4.00318C5.12324 3.72259 5.27149 3.46339 5.46603 3.24069C5.66057 3.01799 5.89751 2.83625 6.16302 2.70608C6.42853 2.57591 6.71731 2.4999 7.0125 2.4825ZM16.8988 9.42625C17.7656 9.39398 18.5845 9.02027 19.177 8.38663C19.7694 7.75299 20.0873 6.91081 20.0613 6.04375C20.091 5.17435 19.7748 4.32864 19.1819 3.692C18.5891 3.05536 17.7681 2.67975 16.8988 2.6475C16.0319 2.68329 15.2143 3.06045 14.6244 3.69669C14.0346 4.33294 13.7202 5.17664 13.75 6.04375C13.7239 6.90852 14.0399 7.74869 14.6294 8.38195C15.2189 9.0152 16.0343 9.39044 16.8988 9.42625ZM16.8988 4.36625C17.311 4.40137 17.6931 4.59669 17.963 4.91031C18.2329 5.22392 18.3692 5.63084 18.3425 6.04375C18.3655 6.45437 18.2275 6.85777 17.958 7.16839C17.6885 7.479 17.3085 7.67238 16.8988 7.7075C16.4865 7.67577 16.1031 7.48386 15.8307 7.17287C15.5583 6.86188 15.4185 6.45656 15.4412 6.04375C15.4147 5.62864 15.5528 5.2198 15.8256 4.9058C16.0985 4.59181 16.484 4.39796 16.8988 4.36625ZM16.8025 11.145C15.9865 11.1423 15.1808 11.3283 14.4486 11.6885C13.7163 12.0486 13.0772 12.5732 12.5812 13.2212C11.904 12.4021 11.0529 11.7439 10.0897 11.2944C9.12651 10.8449 8.07537 10.6154 7.0125 10.6225C5.20756 10.5852 3.4604 11.2594 2.14833 12.4994C0.83627 13.7395 0.0646069 15.4458 0 17.25H1.71875C1.77245 15.898 2.35966 14.6223 3.35183 13.7023C4.344 12.7823 5.66028 12.2929 7.0125 12.3413C8.36336 12.293 9.67817 12.7828 10.6682 13.7032C11.6581 14.6235 12.2424 15.8992 12.2925 17.25H14.0112C14.0154 16.4543 13.866 15.6653 13.5712 14.9263C13.8501 14.3048 14.3045 13.7785 14.8786 13.4121C15.4527 13.0456 16.1215 12.855 16.8025 12.8638C17.6879 12.8302 18.5506 13.1482 19.2023 13.7485C19.8541 14.3487 20.2419 15.1823 20.2812 16.0675V17.25H22V16.0675C21.9604 14.7266 21.3914 13.4559 20.4174 12.5334C19.4433 11.6109 18.1436 11.1117 16.8025 11.145Z" fill="#153345"/>
</svg>
