<svg width="18" height="20" viewBox="0 0 18 20" fill="none" xmlns="http://www.w3.org/2000/svg">
<path d="M9.00033 11.8333C10.0128 11.8333 10.8337 11.0125 10.8337 10C10.8337 8.98748 10.0128 8.16667 9.00033 8.16667C7.9878 8.16667 7.16699 8.98748 7.16699 10C7.16699 11.0125 7.9878 11.8333 9.00033 11.8333Z" stroke="#153345" stroke-width="2"/>
<path d="M2.94901 4.39L3.40734 3.59525C3.22739 3.49121 3.01743 3.45142 2.8119 3.4824C2.60636 3.51338 2.41746 3.61329 2.27617 3.76575L2.94901 4.39ZM1.11659 7.56533L0.240257 7.29492C0.179261 7.4933 0.187395 7.70651 0.263327 7.89967C0.339259 8.09283 0.478495 8.25451 0.658257 8.35825L1.11659 7.56533ZM1.11476 12.4337L0.656423 11.6399C0.47644 11.7439 0.33713 11.9059 0.261346 12.0995C0.185561 12.293 0.177802 12.5066 0.23934 12.7051L1.11476 12.4337ZM2.94809 15.6091L2.27526 16.2324C2.41654 16.3849 2.60545 16.4848 2.81098 16.5158C3.01652 16.5467 3.22648 16.507 3.40642 16.4029L2.94809 15.6091ZM7.16476 18.0428H6.24992C6.24993 18.2506 6.32051 18.4522 6.45008 18.6145C6.57965 18.7769 6.76053 18.8905 6.96309 18.9366L7.16476 18.0428ZM10.8323 18.0447L11.0368 18.9384C11.2391 18.8921 11.4198 18.7785 11.5492 18.6161C11.6786 18.4538 11.749 18.2523 11.749 18.0447H10.8323ZM15.0499 15.61L14.5916 16.4038C14.7714 16.5076 14.9812 16.5473 15.1865 16.5163C15.3919 16.4853 15.5806 16.3856 15.7218 16.2333L15.0499 15.61ZM16.8814 12.4328L17.7578 12.7032C17.8188 12.5049 17.8106 12.2917 17.7347 12.0985C17.6588 11.9053 17.5195 11.7437 17.3398 11.6399L16.8814 12.4328ZM16.8833 7.56442L17.3416 8.35825C17.5216 8.25429 17.6609 8.09225 17.7367 7.89871C17.8125 7.70517 17.8202 7.49161 17.7587 7.29308L16.8833 7.56442ZM15.0499 4.38817L15.7228 3.76575C15.5816 3.61314 15.3927 3.51306 15.1872 3.48191C14.9817 3.45076 14.7716 3.49041 14.5916 3.59433L15.0499 4.38817ZM10.8333 1.95625H11.7499C11.75 1.74863 11.6795 1.54716 11.5501 1.38479C11.4207 1.22243 11.2401 1.1088 11.0377 1.0625L10.8333 1.95625ZM7.16659 1.95442L6.96217 1.06067C6.75979 1.10696 6.57911 1.2206 6.44972 1.38296C6.32033 1.54532 6.24989 1.7468 6.24992 1.95442H7.16659ZM1.99292 7.83575C2.31695 6.78444 2.87335 5.8195 3.62092 5.01242L2.27617 3.76575C1.34171 4.77461 0.646205 5.9817 0.241173 7.29583L1.99292 7.83575ZM2.64926 13.6667C2.37431 13.1918 2.15354 12.6875 1.99109 12.1633L0.240257 12.706C0.439173 13.3486 0.71234 13.9783 1.06159 14.5833L2.64926 13.6667ZM3.62092 14.9876C3.24899 14.5849 2.92246 14.1419 2.64926 13.6667L1.06159 14.5833C1.40992 15.1883 1.81967 15.7392 2.27617 16.2333L3.62092 14.9876ZM10.6298 17.1518C9.55682 17.3958 8.44275 17.3951 7.37009 17.15L6.96217 18.9375C8.30332 19.2439 9.69625 19.2446 11.0377 18.9393L10.6298 17.1518ZM16.0069 12.1642C15.6829 13.2156 15.1265 14.1805 14.3789 14.9876L15.7237 16.2343C16.6581 15.2254 17.3536 14.0192 17.7587 12.7051L16.0069 12.1642ZM15.3506 6.33333C15.6311 6.81917 15.8502 7.32333 16.0088 7.83667L17.7596 7.294C17.5568 6.63949 17.2813 6.00978 16.9383 5.41667L15.3506 6.33333ZM14.3789 5.01242C14.7428 5.40658 15.0701 5.84658 15.3506 6.33333L16.9383 5.41667C16.5963 4.82301 16.1889 4.26955 15.7237 3.76667L14.3789 5.01242ZM7.37009 2.84817C8.44302 2.60422 9.5571 2.60485 10.6298 2.85L11.0377 1.0625C9.69682 0.756215 8.30331 0.755588 6.96217 1.06067L7.37009 2.84817ZM8.08326 3.64933V1.9535H6.24992V3.64933H8.08326ZM4.87492 4.44317L3.40734 3.59525L2.49067 5.18292L3.95826 6.03083L4.87492 4.44317ZM2.12492 10.7938L0.65734 11.6408L1.57401 13.2285L3.04159 12.3815L2.12492 10.7938ZM3.04159 7.6185L1.57492 6.77242L0.658257 8.36008L2.12492 9.20617L3.04159 7.6185ZM8.08326 18.0437V16.3507H6.24992V18.0428L8.08326 18.0437ZM3.95826 13.9692L2.49067 14.8171L3.40734 16.4047L4.87401 15.5568L3.95826 13.9692ZM15.5092 14.8171L14.0416 13.9692L13.1249 15.5568L14.5925 16.4047L15.5092 14.8171ZM11.7499 18.0456V16.3507H9.91659V18.0465L11.7499 18.0456ZM16.4258 6.77058L14.9583 7.6185L15.8749 9.20617L17.3416 8.35825L16.4258 6.77058ZM17.3407 11.6399L15.8749 10.7938L14.9583 12.3815L16.4249 13.2276L17.3407 11.6399ZM11.7499 3.64933V1.95625H9.91659V3.64933H11.7499ZM14.5925 3.59525L13.1249 4.44317L14.0416 6.03083L15.5092 5.18292L14.5925 3.59525ZM9.91659 3.64933C9.91659 5.76683 12.2083 7.08958 14.0416 6.03083L13.1249 4.44317C12.9856 4.52362 12.8275 4.56598 12.6666 4.56598C12.5057 4.56598 12.3476 4.52362 12.2083 4.44317C12.0689 4.36272 11.9532 4.24701 11.8727 4.10766C11.7923 3.96831 11.7499 3.81024 11.7499 3.64933H9.91659ZM14.9583 7.6185C13.1249 8.67725 13.1249 11.3227 14.9583 12.3815L15.8749 10.7938C15.7356 10.7134 15.6199 10.5977 15.5394 10.4583C15.459 10.319 15.4166 10.1609 15.4166 10C15.4166 9.8391 15.459 9.68103 15.5394 9.54169C15.6199 9.40234 15.7356 9.28662 15.8749 9.20617L14.9583 7.6185ZM14.0416 13.9692C12.2083 12.9113 9.91659 14.2341 9.91659 16.3507H11.7499C11.7499 16.1898 11.7923 16.0317 11.8727 15.8923C11.9532 15.753 12.0689 15.6373 12.2083 15.5568C12.3476 15.4764 12.5057 15.434 12.6666 15.434C12.8275 15.434 12.9856 15.4764 13.1249 15.5568L14.0416 13.9692ZM8.08326 16.3507C8.08326 14.2332 5.79159 12.9104 3.95826 13.9692L4.87401 15.5568C5.01336 15.4764 5.17234 15.434 5.33325 15.434C5.49416 15.434 5.65223 15.4764 5.79158 15.5568C5.93093 15.6373 6.04665 15.753 6.1271 15.8923C6.20756 16.0317 6.24992 16.1898 6.24992 16.3507H8.08326ZM3.04159 12.3815C4.87492 11.3227 4.87492 8.67725 3.04159 7.6185L2.12492 9.20617C2.26426 9.28662 2.37997 9.40234 2.46042 9.54169C2.54086 9.68103 2.58322 9.8391 2.58322 10C2.58322 10.1609 2.54086 10.319 2.46042 10.4583C2.37997 10.5977 2.26426 10.7134 2.12492 10.7938L3.04159 12.3815ZM6.24992 3.64933C6.24992 3.81024 6.20756 3.96831 6.1271 4.10766C6.04665 4.24701 5.93093 4.36272 5.79158 4.44317C5.65223 4.52362 5.49416 4.56598 5.33325 4.56598C5.17234 4.56598 5.01427 4.52362 4.87492 4.44317L3.95826 6.03083C5.79159 7.08867 8.08326 5.76592 8.08326 3.64933H6.24992Z" fill="#153345"/>
</svg>
