<svg width="22" height="20" viewBox="0 0 22 20" fill="none" xmlns="http://www.w3.org/2000/svg">
<path fill-rule="evenodd" clip-rule="evenodd" d="M3.66602 0.833328C2.93667 0.833328 2.2372 1.12306 1.72147 1.63878C1.20575 2.15451 0.916016 2.85398 0.916016 3.58333V16.4167C0.916016 17.146 1.20575 17.8455 1.72147 18.3612C2.2372 18.8769 2.93667 19.1667 3.66602 19.1667H18.3327C19.062 19.1667 19.7615 18.8769 20.2772 18.3612C20.793 17.8455 21.0827 17.146 21.0827 16.4167V3.58333C21.0827 2.85398 20.793 2.15451 20.2772 1.63878C19.7615 1.12306 19.062 0.833328 18.3327 0.833328H3.66602ZM18.3327 2.66666H3.66602C3.4229 2.66666 3.18974 2.76324 3.01783 2.93515C2.84593 3.10706 2.74935 3.34021 2.74935 3.58333V6.33333H19.2494V3.58333C19.2494 3.34021 19.1528 3.10706 18.9809 2.93515C18.809 2.76324 18.5758 2.66666 18.3327 2.66666ZM2.74935 16.4167V8.16666H19.2494V16.4167C19.2494 16.6598 19.1528 16.8929 18.9809 17.0648C18.809 17.2368 18.5758 17.3333 18.3327 17.3333H3.66602C3.4229 17.3333 3.18974 17.2368 3.01783 17.0648C2.84593 16.8929 2.74935 16.6598 2.74935 16.4167Z" fill="#153345"/>
</svg>
